<svg width="57" height="37" viewBox="0 0 57 37" fill="none" xmlns="http://www.w3.org/2000/svg">
<path d="M0 23.6V0H1.2V23.6H0ZM2.4 23.6V0H3.6V23.6H2.4ZM7.2 23.6V0H8.4V23.6H7.2ZM12 23.6V0H13.2V23.6H12ZM16.8 23.6V0H18V23.6H16.8ZM19.2 23.6V0H20.4V23.6H19.2ZM21.6 23.6V0H22.8V23.6H21.6ZM24 23.6V0H25.2V23.6H24ZM28.8 23.6V0H32.4V23.6H28.8ZM33.6 23.6V0H37.2V23.6H33.6ZM16 31.96V31.24L22.28 27.92V29L17.12 31.6L22.32 34.52V35.68L16 31.96Z" fill="black"/>
<path d="M38.3984 23.6V0H41.9984V23.6H38.3984ZM43.1984 23.6V0H46.7984V23.6H43.1984ZM50.3984 23.6V0H51.5984V23.6H50.3984ZM52.7984 23.6V0H53.9984V23.6H52.7984ZM55.1984 23.6V0H56.3984V23.6H55.1984ZM47.8384 36.52C47.3584 36.52 46.8918 36.4267 46.4384 36.24C46.0118 36.08 45.6384 35.8267 45.3184 35.48L45.9984 34.64L46.0784 34.52L46.1584 34.6C46.1851 34.7067 46.2118 34.8 46.2384 34.88C46.2651 34.9333 46.3318 35.0133 46.4384 35.12C46.6251 35.28 46.8251 35.4 47.0384 35.48C47.2518 35.5867 47.5051 35.64 47.7984 35.64C48.3851 35.64 48.8251 35.4667 49.1184 35.12C49.4118 34.8 49.5584 34.3467 49.5584 33.76C49.5584 33.1467 49.3718 32.6933 48.9984 32.4C48.6251 32.08 48.1051 31.92 47.4384 31.92C47.3318 31.92 47.1718 31.9333 46.9584 31.96V31.12C47.8384 31.12 48.4384 30.96 48.7584 30.64C49.0784 30.32 49.2384 29.8667 49.2384 29.28C49.2384 28.88 49.1184 28.5467 48.8784 28.28C48.6384 28.04 48.3184 27.92 47.9184 27.92C47.2784 27.92 46.7184 28.1467 46.2384 28.6L45.5984 28C46.2118 27.36 46.9851 27.04 47.9184 27.04C48.6651 27.04 49.2518 27.2533 49.6784 27.68C50.1051 28.08 50.3184 28.64 50.3184 29.36C50.3184 29.84 50.1984 30.28 49.9584 30.68C49.6918 31.0533 49.3318 31.3067 48.8784 31.44C49.4118 31.6267 49.8384 31.92 50.1584 32.32C50.4784 32.72 50.6384 33.2133 50.6384 33.8C50.6384 34.3067 50.5318 34.76 50.3184 35.16C50.0784 35.5867 49.7584 35.92 49.3584 36.16C48.9318 36.4 48.4251 36.52 47.8384 36.52Z" fill="black"/>
</svg>
